<?xml version="1.0" encoding="utf-8" ?>
<svg baseProfile="full" height="1000px" version="1.1" width="4000px" xmlns="http://www.w3.org/2000/svg" xmlns:ev="http://www.w3.org/2001/xml-events" xmlns:xlink="http://www.w3.org/1999/xlink"><defs /><polyline fill="none" points="916.5063509461097,375.0 916.5063509461097,625.0 700.0,750.0 483.4936490538903,625.0 483.49364905389035,375.0 700.0,250.0 916.5063509461097,375.0" stroke="#5FE0CF" stroke-linejoin="round" stroke-width="40" /><line stroke="#5FE0CF" stroke-linecap="round" stroke-width="40" x1="916.5063509461097" x2="812.5833024919771" y1="375.0" y2="435.0" /><line stroke="#5FE0CF" stroke-linecap="round" stroke-width="40" x1="916.5063509461097" x2="812.5833024919771" y1="625.0" y2="565.0" /><line stroke="#5FE0CF" stroke-linecap="round" stroke-width="40" x1="700.0" x2="700.0" y1="750.0" y2="630.0" /><line stroke="#5FE0CF" stroke-linecap="round" stroke-width="40" x1="483.4936490538903" x2="587.4166975080229" y1="625.0" y2="565.0" /><line stroke="#5FE0CF" stroke-linecap="round" stroke-width="40" x1="483.49364905389035" x2="587.4166975080229" y1="375.0" y2="435.0" /><line stroke="#5FE0CF" stroke-linecap="round" stroke-width="40" x1="700.0" x2="700.0" y1="250.0" y2="370.0" /><polyline fill="none" points="812.5833024919771,435.0 812.5833024919771,565.0 700.0,630.0 587.4166975080229,565.0 587.4166975080229,435.0 700.0,370.0 812.5833024919771,435.0" stroke="#5FE0CF" stroke-linejoin="round" stroke-width="40" /><circle cx="916.5063509461097" cy="375.0" fill="#5FE0CF" r="45" /><circle cx="916.5063509461097" cy="625.0" fill="#5FE0CF" r="45" /><circle cx="700.0" cy="750.0" fill="#5FE0CF" r="45" /><circle cx="483.4936490538903" cy="625.0" fill="#5FE0CF" r="45" /><circle cx="483.49364905389035" cy="375.0" fill="#5FE0CF" r="45" /><circle cx="700.0" cy="250.0" fill="#5FE0CF" r="45" /><text fill="#FFFFFF" font-family="DejaVu Sans" font-size="500px" font-weight="bold" x="1050" y="650">HUBAICE</text></svg>